<svg xmlns="http://www.w3.org/2000/svg" height="595pt" version="1.1" viewBox="-6 0 595 595.1185" width="595pt">
<g id="surface1">
<path d="M 55.921875 265.671875 L 122.296875 265.671875 L 122.296875 489.644531 L 55.921875 489.644531 Z M 55.921875 265.671875 " style=" stroke:none;fill-rule:nonzero;fill:rgb(75.686275%,75.686275%,75.686275%);fill-opacity:1;" />
<path d="M 143.808594 208.570312 L 143.808594 251.058594 C 143.78125 259.085938 137.277344 265.589844 129.25 265.617188 L 48.75 265.617188 C 40.722656 265.589844 34.21875 259.085938 34.195312 251.058594 L 34.195312 208.570312 Z M 143.808594 208.570312 " style=" stroke:none;fill-rule:nonzero;fill:rgb(75.686275%,75.686275%,75.686275%);fill-opacity:1;" />
<path d="M 143.808594 546.691406 L 143.808594 504.203125 C 143.78125 496.175781 137.277344 489.671875 129.25 489.644531 L 48.75 489.644531 C 40.722656 489.671875 34.21875 496.175781 34.195312 504.203125 L 34.195312 546.691406 Z M 143.808594 546.691406 " style=" stroke:none;fill-rule:nonzero;fill:rgb(75.686275%,75.686275%,75.686275%);fill-opacity:1;" />
<path d="M 258.222656 265.671875 L 324.59375 265.671875 L 324.59375 489.644531 L 258.222656 489.644531 Z M 258.222656 265.671875 " style=" stroke:none;fill-rule:nonzero;fill:rgb(75.686275%,75.686275%,75.686275%);fill-opacity:1;" />
<path d="M 346.109375 208.570312 L 346.109375 251.058594 C 346.082031 259.085938 339.578125 265.589844 331.550781 265.617188 L 251.210938 265.617188 C 243.183594 265.589844 236.679688 259.085938 236.652344 251.058594 L 236.652344 208.570312 Z M 346.109375 208.570312 " style=" stroke:none;fill-rule:nonzero;fill:rgb(75.686275%,75.686275%,75.686275%);fill-opacity:1;" />
<path d="M 346.109375 546.691406 L 346.109375 504.203125 C 346.082031 496.175781 339.578125 489.671875 331.550781 489.644531 L 251.210938 489.644531 C 243.183594 489.671875 236.679688 496.175781 236.652344 504.203125 L 236.652344 546.691406 Z M 346.109375 546.691406 " style=" stroke:none;fill-rule:nonzero;fill:rgb(75.686275%,75.686275%,75.686275%);fill-opacity:1;" />
<path d="M 460.519531 265.671875 L 526.894531 265.671875 L 526.894531 489.644531 L 460.519531 489.644531 Z M 460.519531 265.671875 " style=" stroke:none;fill-rule:nonzero;fill:rgb(75.686275%,75.686275%,75.686275%);fill-opacity:1;" />
<path d="M 548.40625 208.570312 L 548.40625 251.058594 C 548.378906 259.085938 541.878906 265.589844 533.851562 265.617188 L 453.566406 265.617188 C 445.539062 265.589844 439.035156 259.085938 439.007812 251.058594 L 439.007812 208.570312 Z M 548.40625 208.570312 " style=" stroke:none;fill-rule:nonzero;fill:rgb(75.686275%,75.686275%,75.686275%);fill-opacity:1;" />
<path d="M 548.40625 546.691406 L 548.40625 504.203125 C 548.378906 496.175781 541.878906 489.671875 533.851562 489.644531 L 453.566406 489.644531 C 445.539062 489.671875 439.035156 496.175781 439.007812 504.203125 L 439.007812 546.691406 Z M 548.40625 546.691406 " style=" stroke:none;fill-rule:nonzero;fill:rgb(75.686275%,75.686275%,75.686275%);fill-opacity:1;" />
<path d="M 574.613281 156.8125 L 291.382812 7.890625 L 8.152344 156.8125 Z M 574.613281 156.8125 " style=" stroke:none;fill-rule:nonzero;fill:rgb(75.686275%,75.686275%,75.686275%);fill-opacity:1;" />
<path d="M 34.785156 151.742188 L 547.976562 151.742188 C 556.910156 151.742188 564.152344 158.984375 564.152344 167.917969 L 564.152344 192.398438 C 564.152344 201.332031 556.910156 208.574219 547.976562 208.574219 L 34.785156 208.574219 C 25.851562 208.574219 18.609375 201.332031 18.609375 192.398438 L 18.609375 167.917969 C 18.613281 158.984375 25.851562 151.742188 34.785156 151.742188 Z M 34.785156 151.742188 " style=" stroke:none;fill-rule:nonzero;fill:rgb(75.686275%,75.686275%,75.686275%);fill-opacity:1;" />
<path d="M 564.152344 587.074219 L 564.152344 563.136719 C 564.125 554.066406 556.777344 546.71875 547.707031 546.691406 L 35.054688 546.691406 C 25.988281 546.71875 18.640625 554.066406 18.613281 563.136719 L 18.613281 587.074219 Z M 564.152344 587.074219 " style=" stroke:none;fill-rule:nonzero;fill:rgb(75.686275%,75.686275%,75.686275%);fill-opacity:1;" />
<path d="M 11.007812 164.359375 C 10.792969 165.535156 10.667969 166.726562 10.632812 167.917969 L 10.632812 192.398438 C 10.664062 202.484375 16.929688 211.5 26.375 215.042969 L 26.375 251.058594 C 26.417969 263.113281 35.902344 273.027344 47.941406 273.597656 L 47.941406 481.664062 C 35.902344 482.238281 26.417969 492.148438 26.375 504.203125 L 26.375 540.113281 C 16.90625 543.746094 10.648438 552.832031 10.632812 562.972656 L 10.632812 586.914062 C 10.632812 591.375 14.253906 595 18.71875 595 L 564.152344 595 C 568.617188 595 572.238281 591.375 572.238281 586.914062 L 572.238281 562.972656 C 572.222656 552.832031 565.964844 543.746094 556.496094 540.113281 L 556.496094 503.988281 C 556.453125 491.929688 546.96875 482.019531 534.929688 481.449219 L 534.929688 273.597656 C 546.96875 273.023438 556.453125 263.113281 556.496094 251.058594 L 556.496094 215.042969 C 565.941406 211.5 572.207031 202.484375 572.238281 192.398438 L 572.238281 168.078125 C 572.203125 166.886719 572.078125 165.695312 571.863281 164.523438 C 575.925781 166.320312 580.683594 164.488281 582.484375 160.421875 C 584.285156 156.359375 582.453125 151.601562 578.386719 149.800781 L 295.15625 0.933594 C 292.792969 -0.3125 289.96875 -0.3125 287.605469 0.933594 L 4.378906 149.640625 C 0.425781 151.726562 -1.089844 156.617188 0.992188 160.570312 C 2.894531 164.175781 7.191406 165.804688 11.007812 164.359375 Z M 556.0625 168.078125 L 556.0625 192.558594 C 556.0625 197.023438 552.441406 200.644531 547.976562 200.644531 L 34.785156 200.644531 C 30.324219 200.644531 26.699219 197.023438 26.699219 192.558594 L 26.699219 168.078125 C 26.699219 163.617188 30.324219 159.992188 34.785156 159.992188 L 547.976562 159.992188 C 552.441406 159.992188 556.0625 163.617188 556.0625 168.078125 Z M 540.320312 229.167969 L 447.042969 229.167969 L 447.042969 216.605469 L 540.320312 216.605469 C 540.320312 216.605469 540.320312 229.167969 540.320312 229.167969 Z M 518.753906 481.664062 L 468.609375 481.664062 L 468.609375 273.757812 L 518.804688 273.757812 Z M 452.378906 481.664062 C 440.339844 482.238281 430.855469 492.148438 430.8125 504.203125 L 430.8125 538.601562 L 354.195312 538.601562 L 354.195312 504.203125 C 354.152344 492.148438 344.667969 482.238281 332.628906 481.664062 L 332.628906 273.597656 C 344.667969 273.023438 354.152344 263.113281 354.195312 251.058594 L 354.195312 216.605469 L 430.867188 216.605469 L 430.867188 251.003906 C 430.910156 263.0625 440.394531 272.972656 452.433594 273.542969 Z M 540.265625 538.601562 L 447.042969 538.601562 L 447.042969 526.253906 L 540.320312 526.253906 Z M 244.6875 538.601562 L 244.6875 526.253906 L 337.964844 526.253906 L 337.964844 538.601562 Z M 151.84375 538.601562 L 151.84375 504.203125 C 151.800781 492.148438 142.316406 482.238281 130.277344 481.667969 L 130.277344 273.652344 C 142.316406 273.078125 151.800781 263.167969 151.84375 251.113281 L 151.84375 216.605469 L 228.566406 216.605469 L 228.566406 251.003906 C 228.609375 263.0625 238.09375 272.972656 250.132812 273.542969 L 250.132812 481.664062 C 238.09375 482.238281 228.609375 492.148438 228.566406 504.203125 L 228.566406 538.601562 C 228.566406 538.601562 151.84375 538.601562 151.84375 538.601562 Z M 42.390625 538.601562 L 42.390625 526.253906 L 135.667969 526.253906 L 135.667969 538.601562 Z M 63.957031 273.757812 L 114.15625 273.757812 L 114.15625 481.558594 L 64.011719 481.558594 Z M 135.722656 216.605469 L 135.722656 228.953125 L 42.441406 228.953125 L 42.441406 216.605469 Z M 338.019531 216.605469 L 338.019531 228.953125 L 244.742188 228.953125 L 244.742188 216.605469 Z M 338.019531 509.972656 L 244.742188 509.972656 L 244.742188 504.09375 C 244.742188 500.519531 247.640625 497.625 251.214844 497.625 L 331.550781 497.625 C 335.125 497.625 338.019531 500.519531 338.019531 504.09375 Z M 316.453125 481.449219 L 266.308594 481.449219 L 266.308594 273.757812 L 316.507812 273.757812 Z M 331.550781 257.582031 L 251.210938 257.582031 C 247.636719 257.582031 244.742188 254.6875 244.742188 251.113281 L 244.742188 245.238281 L 338.019531 245.238281 L 338.019531 251.113281 C 338.019531 254.6875 335.125 257.582031 331.550781 257.582031 Z M 42.441406 251.113281 L 42.441406 245.238281 L 135.71875 245.238281 L 135.71875 251.113281 C 135.71875 254.6875 132.824219 257.582031 129.25 257.582031 L 48.75 257.582031 C 45.21875 257.496094 42.410156 254.589844 42.441406 251.058594 Z M 48.75 497.734375 L 129.089844 497.734375 C 132.664062 497.734375 135.558594 500.628906 135.558594 504.203125 L 135.558594 510.078125 L 42.441406 510.078125 L 42.441406 504.203125 C 42.441406 500.695312 45.242188 497.824219 48.75 497.734375 Z M 555.902344 578.988281 L 26.699219 578.988281 L 26.699219 563.136719 C 26.699219 558.519531 30.441406 554.777344 35.054688 554.777344 L 547.707031 554.777344 C 552.320312 554.777344 556.0625 558.519531 556.0625 563.136719 Z M 540.160156 504.203125 L 540.160156 510.082031 L 447.042969 510.082031 L 447.042969 504.203125 C 447.042969 500.628906 449.9375 497.734375 453.511719 497.734375 L 534.011719 497.734375 C 537.519531 497.820312 540.320312 500.695312 540.320312 504.203125 Z M 534.011719 257.582031 L 453.566406 257.582031 C 449.992188 257.582031 447.097656 254.6875 447.097656 251.113281 L 447.097656 245.238281 L 540.375 245.238281 L 540.375 251.113281 C 540.375 254.644531 537.542969 257.523438 534.011719 257.582031 Z M 291.382812 17.109375 L 532.230469 143.707031 L 50.53125 143.707031 Z M 291.382812 17.109375 " style=" stroke:none;fill-rule:nonzero;fill:rgb(11.372549%,12.941176%,15.686275%);fill-opacity:1;" />
</g>
</svg>